<svg width="577" height="210" viewBox="0 0 577 210" fill="none" xmlns="http://www.w3.org/2000/svg">
<path d="M-26.7793 157.559H83.8164C87.8203 157.559 91.2383 156.143 94.0703 153.311C96.9023 150.479 98.3184 147.061 98.3184 143.057C98.3184 139.053 96.9023 135.635 94.0703 132.803C91.2383 129.971 87.8203 128.555 83.8164 128.555H22.7324C5.83789 128.555 -8.56641 122.598 -20.4805 110.684C-32.3945 98.6719 -38.3516 84.2676 -38.3516 67.4707C-38.3516 50.5762 -32.3945 36.1719 -20.4805 24.2578C-8.56641 12.3438 5.83789 6.38672 22.7324 6.38672H133.328V52.8223H22.7324C18.7285 52.8223 15.3105 54.2871 12.4785 57.2168C9.64648 60.0488 8.23047 63.4668 8.23047 67.4707C8.23047 71.4746 9.64648 74.8926 12.4785 77.7246C15.3105 80.5566 18.7285 81.9727 22.7324 81.9727H83.8164C100.613 81.9727 115.018 87.9297 127.029 99.8438C138.943 111.855 144.9 126.26 144.9 143.057C144.9 159.951 138.943 174.355 127.029 186.27C115.018 198.184 100.613 204.141 83.8164 204.141H-26.7793V157.559ZM150.76 143.057C150.76 124.6 144.217 108.828 131.131 95.7422C118.045 82.6562 102.273 76.1133 83.8164 76.1133H22.7324C20.291 76.1133 18.2402 75.2832 16.5801 73.623C14.8223 71.8652 13.9434 69.8145 13.9434 67.4707C13.9434 65.0293 14.8223 62.9785 16.5801 61.3184C18.2402 59.5605 20.291 58.6816 22.7324 58.6816H139.041V0.527344H22.7324C4.27539 0.527344 -11.4961 7.07031 -24.582 20.1562C-37.668 33.2422 -44.2109 49.0137 -44.2109 67.4707C-44.2109 85.9277 -37.668 101.699 -24.582 114.785C-11.4961 127.871 4.27539 134.414 22.7324 134.414H83.8164C86.2578 134.414 88.3086 135.244 89.9688 136.904C91.7266 138.662 92.6055 140.713 92.6055 143.057C92.6055 145.498 91.7266 147.549 89.9688 149.209C88.3086 150.967 86.2578 151.846 83.8164 151.846H-32.6387V210H83.8164C102.273 210 118.045 203.457 131.131 190.371C144.217 177.285 150.76 161.514 150.76 143.057ZM168.484 0.527344V210H226.639V128.555H310.135V81.9727H226.639V58.6816H348.807V0.527344H168.484ZM174.344 6.38672H343.094V52.8223H220.926V87.832H304.275V122.695H220.926V204.141H174.344V6.38672ZM515.213 193.887C501.443 200.723 486.795 204.141 471.268 204.141C444.021 204.141 420.73 194.473 401.395 175.137L399.051 172.939C391.434 164.736 385.33 155.557 380.74 145.4C375.857 134.268 373.123 122.598 372.537 110.391V110.244C372.439 109.561 372.391 108.828 372.391 108.047V107.754C372.391 106.875 372.391 106.045 372.391 105.264C372.391 104.482 372.391 103.652 372.391 102.773V102.48C372.391 101.699 372.439 100.918 372.537 100.137C373.123 87.832 375.857 76.1621 380.74 65.127C385.721 53.9941 392.605 44.0332 401.395 35.2441C410.086 26.5527 419.998 19.7168 431.131 14.7363C442.166 9.85352 453.836 7.11914 466.141 6.5332H466.287C466.873 6.43555 467.557 6.38672 468.338 6.38672H468.631H468.777H471.268C496.365 6.38672 518.289 14.6875 537.039 31.2891L503.934 64.3945C494.461 56.7773 483.572 52.9688 471.268 52.9688C465.408 52.9688 459.744 53.8965 454.275 55.752H454.129C454.031 55.8496 453.934 55.8984 453.836 55.8984C453.445 55.9961 452.908 56.1914 452.225 56.4844L451.932 56.6309C451.639 56.7285 451.395 56.8262 451.199 56.9238C451.004 57.0215 450.76 57.1191 450.467 57.2168L450.32 57.3633H450.174C449.588 57.6562 449.1 57.8516 448.709 57.9492C448.611 58.0469 448.514 58.0957 448.416 58.0957L448.27 58.2422C430.887 66.7383 421.17 80.6055 419.119 99.8438V99.9902C419.119 100.576 419.07 101.309 418.973 102.188C418.973 102.383 418.973 102.529 418.973 102.627C418.973 103.506 418.973 104.385 418.973 105.264C418.973 106.143 418.973 107.021 418.973 107.9C418.973 107.998 418.973 108.145 418.973 108.34C419.07 109.121 419.119 109.854 419.119 110.537C419.119 110.635 419.119 110.684 419.119 110.684C420.584 124.062 426.248 135.244 436.111 144.229C446.072 153.115 457.791 157.559 471.268 157.559C480.545 157.559 489.236 155.215 497.342 150.527C505.545 145.84 511.941 139.492 516.531 131.484L521.658 122.695H494.559V87.832H570.145V204.141H523.709V189.639L515.213 193.887ZM576.004 210V81.9727H488.699V128.555H511.551C502.566 144.082 489.139 151.846 471.268 151.846C459.256 151.846 448.855 147.793 440.066 139.688C431.18 131.68 426.15 121.816 424.979 110.098C424.881 109.414 424.832 108.682 424.832 107.9C424.734 107.314 424.734 107.217 424.832 107.607C424.734 106.826 424.686 106.045 424.686 105.264C424.686 104.482 424.734 103.701 424.832 102.92C424.734 103.311 424.734 103.213 424.832 102.627C424.832 101.846 424.881 101.162 424.979 100.576V100.43C426.736 83.3398 435.379 70.9863 450.906 63.3691C451.199 63.2715 451.297 63.2227 451.199 63.2227C451.492 63.125 451.932 62.9297 452.518 62.6367C453.104 62.4414 453.396 62.2949 453.396 62.1973C453.494 62.1973 453.836 62.0996 454.422 61.9043C455.008 61.709 455.447 61.5137 455.74 61.3184C455.545 61.416 455.691 61.3672 456.18 61.1719C461.062 59.5117 466.092 58.6816 471.268 58.6816C484.158 58.6816 495.145 63.2227 504.227 72.3047L545.389 31.1426C524.881 10.7324 500.174 0.527344 471.268 0.527344C470.389 0.527344 469.51 0.527344 468.631 0.527344H468.191C467.312 0.527344 466.531 0.576172 465.848 0.673828C439.09 2.04102 416.189 12.1973 397.146 31.1426C378.201 50.1855 368.045 73.0859 366.678 99.8438C366.678 100.625 366.629 101.455 366.531 102.334V102.627C366.531 103.506 366.531 104.385 366.531 105.264C366.531 106.143 366.531 107.021 366.531 107.9V108.193C366.629 109.072 366.678 109.902 366.678 110.684C368.045 137.441 378.201 160.342 397.146 179.385L397.293 179.238C417.703 199.746 442.361 210 471.268 210C487.674 210 503.201 206.338 517.85 199.014V210H576.004Z" fill="#FAFAFA"/>
</svg>
