<svg width="24" height="18" viewBox="0 0 24 18" fill="none" xmlns="http://www.w3.org/2000/svg">
<path d="M1.34834 9.93165L1.34953 9.9329L8.26685 16.7768C8.78507 17.2895 9.62325 17.2876 10.1391 16.7723C10.6549 16.2571 10.6529 15.4238 10.1347 14.911L5.49036 10.3162L21.4995 10.3162C22.2307 10.3162 23.04 9.72693 23.04 9.00003C23.04 8.27314 22.2307 7.6839 21.4995 7.6839L5.49043 7.6839L10.1346 3.08903C10.6528 2.57627 10.6548 1.74296 10.139 1.22776C9.62319 0.712428 8.78493 0.710652 8.26678 1.22329L1.34946 8.06716L1.34827 8.06841C0.829789 8.58288 0.831443 9.41889 1.34834 9.93165Z" fill="#FAFAFA" fill-opacity="0.3"/>
</svg>
