<svg width="24" height="18" viewBox="0 0 24 18" fill="none" xmlns="http://www.w3.org/2000/svg">
<path d="M22.6517 8.06834L22.6505 8.06709L15.7332 1.22322C15.2149 0.71052 14.3767 0.712428 13.8609 1.22769C13.3451 1.74289 13.3471 2.5762 13.8653 3.08896L18.5096 7.68384L2.50049 7.68384C1.76934 7.68384 0.959961 8.27307 0.959961 8.99997C0.959961 9.72686 1.76934 10.3161 2.50049 10.3161L18.5096 10.3161L13.8654 14.911C13.3472 15.4237 13.3452 16.257 13.861 16.7722C14.3768 17.2876 15.2151 17.2893 15.7332 16.7767L22.6505 9.93284L22.6517 9.93159C23.1702 9.41711 23.1686 8.58111 22.6517 8.06834Z" fill="#C6A57C"/>
</svg>
